<svg xmlns="http://www.w3.org/2000/svg" xmlns:xlink="http://www.w3.org/1999/xlink" viewBox="0 0 86.84 86.84"><defs><style>.cls-1{fill:url(#linear-gradient);}.cls-2{fill:#d2d2d2;}</style><linearGradient id="linear-gradient" x1="-50.82" y1="-6.7" x2="102.43" y2="74.81" gradientUnits="userSpaceOnUse"><stop offset="0.13" stop-color="#2effad"/><stop offset="1" stop-color="#178067"/></linearGradient></defs><title>editbutton</title><g id="Layer_2" data-name="Layer 2"><g id="Layer_1-2" data-name="Layer 1"><rect class="cls-1" width="86.84" height="86.84" rx="5.64"/><path class="cls-2" d="M43.1,66.42a23.16,23.16,0,0,1-19-10l1.62-4.71-8.29-2.85-2.84,8.29,4.72,1.62.13-.36a28,28,0,0,0,51.62-15h-5A23,23,0,0,1,43.1,66.42Z"/><path class="cls-2" d="M43.1,20.42A22.85,22.85,0,0,1,63,31.93l-.35-.14-1.74,4.69,8.21,3.06,3.06-8.22-4.69-1.74,0,.08A28,28,0,0,0,15.1,43.42h5A23,23,0,0,1,43.1,20.42Z"/></g></g></svg>