<?xml version="1.0" encoding="utf-8"?>
<!-- Generator: Adobe Illustrator 24.0.2, SVG Export Plug-In . SVG Version: 6.00 Build 0)  -->
<svg version="1.1" id="Layer_1" xmlns="http://www.w3.org/2000/svg" xmlns:xlink="http://www.w3.org/1999/xlink" x="0px" y="0px"
	 viewBox="0 0 671 300.4" style="enable-background:new 0 0 671 300.4;" xml:space="preserve">
<style type="text/css">
	.st0{fill:url(#SVGID_1_);}
	.st1{fill:url(#SVGID_2_);}
	.st2{fill:none;stroke:#D2D2D2;stroke-miterlimit:10;}
	.st3{fill:url(#SVGID_3_);}
	.st4{fill:url(#SVGID_4_);}
	.st5{fill:url(#SVGID_5_);}
	.st6{fill:url(#SVGID_6_);}
	.st7{fill:url(#SVGID_7_);}
	.st8{fill:url(#SVGID_8_);}
	.st9{fill:url(#SVGID_9_);}
	.st10{fill:url(#SVGID_10_);}
	.st11{fill:url(#SVGID_11_);}
</style>
<g>
	<g>
		
			<linearGradient id="SVGID_1_" gradientUnits="userSpaceOnUse" x1="787.6798" y1="79.6887" x2="26.3718" y2="222.2989" gradientTransform="matrix(1 0 0 -1 0 302.5754)">
			<stop  offset="0.1257" style="stop-color:#2EFFAD"/>
			<stop  offset="1" style="stop-color:#178067"/>
		</linearGradient>
		<path class="st0" d="M572.7,114.7L541,233.1h-57.8c-8.6,0-15.2-2.8-19.7-8.5s-5.7-12.5-3.6-20.5l24-89.5h28.5l-22.3,83.5
			c-1.6,5.9,0.8,8.9,7.2,8.9c3.4,0,6.8,0,10.3,0c3.4,0,6.9,0,10.4,0c1,0,1.7-0.5,2-1.5l24.4-90.9H572.7z"/>
		
			<linearGradient id="SVGID_2_" gradientUnits="userSpaceOnUse" x1="793.6805" y1="111.7223" x2="32.3725" y2="254.3324" gradientTransform="matrix(1 0 0 -1 0 302.5754)">
			<stop  offset="0.1257" style="stop-color:#2EFFAD"/>
			<stop  offset="1" style="stop-color:#178067"/>
		</linearGradient>
		<path class="st1" d="M582.7,75.7h42.8l-10.5,39h40.3c5.4,0,9.6,1.8,12.6,5.5c3,3.6,3.8,8,2.4,13.2l-21.7,81.1
			c-1.4,5.2-4.5,9.6-9.4,13.2c-4.9,3.6-10.1,5.4-15.5,5.4h-48.9c-5.6,0-9.8-1.8-12.6-5.4c-2.9-3.6-3.6-8-2.3-13.2L590,101.7h-14.2
			L582.7,75.7z M591.9,207.1h28.5c1.1,0,1.8-0.5,2.1-1.5l16.9-63.3c0.2-1-0.2-1.5-1.2-1.5h-28.5c-1,0-1.7,0.5-2.1,1.5l-16.9,63.3
			C590.4,206.6,590.8,207.1,591.9,207.1z"/>
	</g>
	<path class="st2" d="M277.2,60.8"/>
	
		<linearGradient id="SVGID_3_" gradientUnits="userSpaceOnUse" x1="229.8601" y1="47.5477" x2="229.8601" y2="47.5477" gradientTransform="matrix(1 0 0 -1 0 302.5754)">
		<stop  offset="0" style="stop-color:#FFFFFF"/>
		<stop  offset="1" style="stop-color:#000000"/>
	</linearGradient>
	<path class="st3" d="M229.9,255"/>
	
		<linearGradient id="SVGID_4_" gradientUnits="userSpaceOnUse" x1="229.8601" y1="47.5477" x2="229.8601" y2="47.5477" gradientTransform="matrix(1 0 0 -1 0 302.5754)">
		<stop  offset="0" style="stop-color:#FFFFFF"/>
		<stop  offset="1" style="stop-color:#000000"/>
	</linearGradient>
	<path class="st4" d="M229.9,255"/>
	
		<linearGradient id="SVGID_5_" gradientUnits="userSpaceOnUse" x1="667.8061" y1="89.8526" x2="35.82" y2="217.8426" gradientTransform="matrix(1 0 0 -1 0 302.5754)">
		<stop  offset="0.1257" style="stop-color:#2EFFAD"/>
		<stop  offset="1" style="stop-color:#178067"/>
	</linearGradient>
	<path class="st5" d="M464.7,120.2c-2.9-3.6-7.1-5.5-12.6-5.5h-40.2l3.5-13.1l2.2-8.3l0.4-1.3l1.8-6.8l0.4-1.5l2-7.6l0.1-0.6h-0.1
		l-42.9,0.7l-258.4,4.1l253.5,4.1l-298.2,4l296.3,4L0,96.8l372.7,4.3l14.2,0.2l-28.3,105.8h-14.3l-6.9,26h42.8l24.4-90.9
		c0.2-1,0.9-1.5,2-1.5H435c1,0,1.4,0.5,1.2,1.5l-24.3,90.9h28.5l26.7-99.8C468.5,128.2,467.7,123.8,464.7,120.2z"/>
	<g>
		<g>
			
				<linearGradient id="SVGID_6_" gradientUnits="userSpaceOnUse" x1="380.2455" y1="27.4451" x2="-13.7332" y2="213.2705" gradientTransform="matrix(1 0 0 -1 0 302.5754)">
				<stop  offset="0.1872" style="stop-color:#D2D2D2"/>
				<stop  offset="1" style="stop-color:#BABABA"/>
			</linearGradient>
			<path class="st6" d="M133.6,119.3L117.3,180c-0.7,2.8-2.4,5.2-5.1,7.1c-2.6,1.9-5.4,2.9-8.4,2.9H77.5c-3,0-5.3-1-6.8-2.9
				s-2-4.3-1.3-7.1l11.7-43.7c0.7-2.8,2.4-5.1,5-7.1c2.7-2,5.5-2.9,8.5-2.9h21.7l5.7-21H145l-3.8,14L133.6,119.3L133.6,119.3z
				 M86.7,176.1h15.4c0.6,0,0.9-0.3,1.1-0.8l9.1-34.1c0.1-0.5-0.1-0.8-0.6-0.8H96.3c-0.6,0-0.9,0.3-1.1,0.8l-9.1,34.1
				C85.9,175.8,86.1,176.1,86.7,176.1z"/>
			
				<linearGradient id="SVGID_7_" gradientUnits="userSpaceOnUse" x1="384.1986" y1="35.8264" x2="-9.7801" y2="221.6518" gradientTransform="matrix(1 0 0 -1 0 302.5754)">
				<stop  offset="0.1872" style="stop-color:#D2D2D2"/>
				<stop  offset="1" style="stop-color:#BABABA"/>
			</linearGradient>
			<path class="st7" d="M132.4,190.1c-3,0-5.3-1-6.8-2.9s-2-4.3-1.3-7.1l11.7-43.7c0.7-2.8,2.4-5.1,5-7.1c2.6-2,5.5-2.9,8.5-2.9
				h26.3c2.9,0,5.2,1,6.8,2.9s2,4.3,1.3,7.1l-4.4,16.4c-1.2,4.3-3.8,8-7.9,11.1c-4.1,3.1-8.4,4.6-13,4.6h-7.2h-8.6l-1.8,6.8
				c-0.2,0.6,0.1,0.8,0.6,0.8h23.8l-3.7,14L132.4,190.1L132.4,190.1z M146.6,154.3h8.5h3.4c3.4,0,5.5-1.6,6.4-4.7l2.3-8.5
				c0.1-0.5-0.1-0.8-0.6-0.8h-15.4c-0.6,0-0.9,0.3-1.1,0.8L146.6,154.3z"/>
			
				<linearGradient id="SVGID_8_" gradientUnits="userSpaceOnUse" x1="393.1769" y1="54.8619" x2="-0.8018" y2="240.6872" gradientTransform="matrix(1 0 0 -1 0 302.5754)">
				<stop  offset="0.1872" style="stop-color:#D2D2D2"/>
				<stop  offset="1" style="stop-color:#BABABA"/>
			</linearGradient>
			<path class="st8" d="M201.5,149.7c-0.1,0.3-0.1,0.4,0.1,0.5c0.9,1.2,3.8,2.1,8.7,2.8c4.9,0.7,8.2,2,9.9,4.1c1.6,2,2,4.4,1.3,7.1
				l-4.2,15.8c-0.8,2.8-2.5,5.2-5.1,7.1c-2.6,1.9-5.4,2.9-8.4,2.9H176l5.6-21H197l-1.7,6.2c-0.2,0.6,0.1,0.8,0.6,0.8h6
				c0.5,0,0.9-0.3,1.1-0.8l1.7-6.2c0-0.2,0-0.4-0.1-0.6c-1.1-1.3-4-2.2-8.8-2.8c-4.8-0.6-8.1-2-9.8-4.1c-1.6-1.9-2-4.3-1.3-7.1
				l4.9-18.1c0.7-2.8,2.4-5.1,5.1-7.1s5.4-2.9,8.4-2.9h27.7l-5.7,21h-15.4l1.6-6.2c0.1-0.5-0.1-0.8-0.6-0.8h-6
				c-0.6,0-0.9,0.3-1.1,0.8L201.5,149.7z"/>
			
				<linearGradient id="SVGID_9_" gradientUnits="userSpaceOnUse" x1="398.952" y1="78.8198" x2="7.9362" y2="263.2477" gradientTransform="matrix(1 0 0 -1 0 302.5754)">
				<stop  offset="0.1872" style="stop-color:#D2D2D2"/>
				<stop  offset="1" style="stop-color:#BABABA"/>
			</linearGradient>
			<path class="st9" d="M235.7,126.3h15.9l-17.7,63.8H218L235.7,126.3z M241.5,105.3h15.9l-3.9,14h-15.9L241.5,105.3z"/>
			
				<linearGradient id="SVGID_10_" gradientUnits="userSpaceOnUse" x1="416.1086" y1="101.8856" x2="15.4899" y2="290.8428" gradientTransform="matrix(1 0 0 -1 0 302.5754)">
				<stop  offset="0.1872" style="stop-color:#D2D2D2"/>
				<stop  offset="1" style="stop-color:#BABABA"/>
			</linearGradient>
			<path class="st10" d="M299.2,190.1l17.7-63.8H349c4.8,0,8.4,1.5,11,4.6c2.5,3.1,3.2,6.7,2,11l-13.3,48.2h-15.9l12.4-45
				c0.8-3.2-0.5-4.8-3.9-4.8c-1.9,0-3.9,0-5.8,0s-3.8,0-5.8,0c-0.6,0-1,0.3-1.1,0.8l-13.6,48.9L299.2,190.1L299.2,190.1z"/>
		</g>
		
			<linearGradient id="SVGID_11_" gradientUnits="userSpaceOnUse" x1="391.6541" y1="49.7575" x2="-12.9189" y2="240.5799" gradientTransform="matrix(1 0 0 -1 0 302.5754)">
			<stop  offset="0.1872" style="stop-color:#D2D2D2"/>
			<stop  offset="1" style="stop-color:#BABABA"/>
		</linearGradient>
		<path class="st11" d="M304.8,129.2c-1.6-2-4-2.9-7-2.9h-27.2c-3.1,0-6,1-8.7,2.9c-2.7,2-4.5,4.3-5.2,7.1L244.6,180
			c-0.7,2.8-0.3,5.2,1.3,7.1c1.6,1.9,3.9,2.9,7,2.9h21.2c-8.4,20.1-20.3,38.8-35.9,54.4c-4.3,4.3-8.8,8.4-13.7,12.2
			c-4.8,3.8-9.8,7.3-15.1,10.4c-10.5,6.3-22.1,11-34.1,13.8c-6,1.3-12.1,2.1-18.3,2.4c-1.5,0-3.1,0.1-4.6,0.1l-4.6-0.2l-4.6-0.4
			c-1.5-0.1-3-0.5-4.6-0.7c-6.1-1-12-2.7-17.7-4.9c-5.7-2.3-11.1-5.2-16.2-8.6c-10.2-6.8-18.6-15.9-25.3-25.9
			c-6.6-10.2-11.5-21.4-14.6-33c-6.3-23.3-6.2-48.2-0.9-71.8c5.3-23.6,15.4-46.3,29.9-66c3.7-4.9,7.6-9.7,11.7-14.2
			c4.2-4.5,8.6-8.8,13.3-12.8c9.4-8,19.9-14.9,31.1-20.1c5.7-2.6,11.5-4.8,17.5-6.5c6-1.7,12.2-2.8,18.4-3.4
			c12.5-1.3,25.2,0.2,37.1,4c-11.9-3.9-24.6-5.5-37.1-4.3c-6.3,0.5-12.5,1.7-18.5,3.3c-6,1.7-11.9,3.9-17.6,6.4
			c-11.4,5.2-21.9,12-31.5,20c-4.8,3.9-9.2,8.3-13.5,12.8c-4.2,4.5-8.2,9.3-11.9,14.2c-14.7,19.8-25.2,42.5-30.7,66.3
			c-5.5,23.8-5.9,48.9,0.3,72.7c3.1,11.9,8,23.3,14.7,33.8c6.8,10.4,15.4,19.8,25.9,26.9c5.2,3.6,10.8,6.6,16.7,9
			c5.9,2.4,12.1,4.1,18.3,5.3c1.6,0.2,3.1,0.6,4.7,0.7l4.8,0.5l4.8,0.2c1.6,0.1,3.2,0,4.8,0c6.4-0.2,12.7-1,19-2.3
			c12.4-2.8,24.3-7.6,35.2-14c5.5-3.1,10.7-6.7,15.6-10.6c3.9-3,7.6-6.2,11.2-9.6c-0.1,0.1-0.3,0.3-0.4,0.4
			c-4.7,4.6-9.9,8.9-15.2,12.8c-5.3,4-11,7.5-16.8,10.7c-11.7,6.3-24.5,10.9-37.7,12.9c-13.2,2.1-26.9,1.4-39.7-2.2
			c-12.9-3.5-24.8-10.1-34.8-18.8c-10-8.7-17.9-19.5-23.8-31.2c-3-5.9-5.4-12-7.3-18.2c-1.9-6.3-3.5-12.6-4.5-19.1
			c-4.1-25.9-1.1-52.7,7.2-77.6c8.3-25,22-48.4,40.6-67.6c4.6-4.8,9.6-9.3,14.8-13.5c2.6-2.1,5.3-4.1,8-6c2.8-1.9,5.6-3.8,8.5-5.4
			c5.8-3.4,11.8-6.5,18.1-9c6.3-2.5,12.8-4.5,19.4-5.9c13.3-2.9,27.1-3,40.4-0.3c13.3,2.7,25.9,8.5,36.6,16.7
			c-10.6-8.3-23.2-14.2-36.5-17c-13.3-2.9-27.3-2.8-40.6,0c-6.7,1.4-13.2,3.4-19.6,5.8c-6.3,2.5-12.4,5.5-18.3,8.9
			c-2.9,1.7-5.8,3.6-8.6,5.4c-2.7,2-5.5,3.9-8.1,6c-5.3,4.2-10.3,8.7-15,13.5C86.1,70.4,72.1,93.9,63.5,119
			c-8.5,25.1-11.8,52.1-7.8,78.5c0.9,6.6,2.5,13.1,4.4,19.4c1.9,6.4,4.3,12.6,7.3,18.6c5.9,12,13.9,23.2,24.2,32.2
			c10.2,9,22.5,16,35.8,19.7c13.3,3.8,27.5,4.7,41.1,2.6c13.7-2,26.9-6.6,39-13c6.1-3.2,11.9-6.8,17.4-10.9c5-3.7,9.9-7.6,14.4-11.8
			c-0.9,0.9-1.8,1.8-2.8,2.6c-10.8,9.6-22.8,18.1-36,24.2c-13.2,6.2-27.5,10.3-42.1,11.1c-14.6,0.9-29.4-1.5-42.8-7.2
			c-6.7-2.8-13-6.4-18.9-10.7c-5.8-4.3-11.1-9.3-15.8-14.8c-9.4-10.9-16.3-23.7-21-37.2c-4.6-13.5-7.2-27.8-7.6-42
			c-1.1-28.6,5.5-57.3,17.8-83.3c12.3-26,30.8-49.5,54.5-66.8c5.9-4.3,12.2-8.2,18.7-11.5c6.6-3.3,13.4-6.2,20.4-8.3
			C178,6,193.1,4.2,207.8,6c7.4,0.9,14.6,2.6,21.6,5.1c7,2.5,13.5,5.9,19.7,10c6.1,4.1,11.7,8.9,16.7,14.2c5,5.3,9.4,11.2,13.2,17.4
			c-3.8-6.2-8.1-12.1-13.1-17.5c-5-5.3-10.5-10.2-16.7-14.3c-6.1-4.1-12.7-7.6-19.7-10.1s-14.2-4.4-21.6-5.3
			c-14.8-1.9-30-0.1-44.2,4.2c-7.1,2.2-14,5-20.6,8.3c-6.6,3.3-12.9,7.2-18.9,11.5c-24,17.2-42.8,40.8-55.4,66.9
			c-12.6,26.2-19.4,55.1-18.6,84.1c0.4,14.5,2.9,28.9,7.5,42.7c4.7,13.8,11.7,26.9,21.3,38.2C83.6,267,89,272.2,95,276.7
			c6,4.5,12.5,8.3,19.4,11.2c13.8,6,29.1,8.5,44.2,7.7c15.1-0.8,29.9-5,43.5-11.2c12.8-5.9,24.5-13.8,35.1-22.9
			c-0.6,0.6-1.3,1.2-1.9,1.7c-11.9,10.2-25.3,18.8-39.9,24.8c-14.6,6-30.4,9.4-46.2,9c-15.8-0.4-31.5-4.6-45.1-12.3
			c-13.7-7.7-25.2-18.8-33.8-31.7c-8.7-12.9-14.5-27.5-18-42.5c-1.8-7.5-2.8-15.2-3.4-22.9c-0.6-7.7-0.7-15.4-0.1-23.2
			c0.5-7.7,1.5-15.4,3-23c1.5-7.6,3.5-15.1,5.8-22.5c2.4-7.4,5.3-14.6,8.5-21.7c3.3-7.1,7-13.9,11.1-20.6
			c8.3-13.2,18.1-25.6,29.6-36.4c11.4-10.8,24.5-20.1,38.8-27c14.3-6.9,30-11.4,46-12.3c16-0.9,32.2,2.1,46.7,8.8
			c14.5,6.7,27,17,36.7,29.4c5.5,7.2,10.2,15,13.9,23.1c2.8,6-4.1-10.8-13.7-23.3c-9.6-12.5-22.1-23-36.7-29.7
			c-14.5-6.9-30.8-10-46.9-9.2c-16.1,0.8-32,5.2-46.4,12.1c-14.5,6.9-27.7,16.2-39.3,27C94.1,50,84.1,62.5,75.7,75.8
			c-4.2,6.7-7.9,13.6-11.3,20.7c-3.3,7.1-6.2,14.4-8.7,21.9c-2.4,7.5-4.5,15-6.1,22.7c-1.5,7.7-2.6,15.4-3.1,23.3
			c-0.6,7.8-0.5,15.7,0,23.5c0.6,7.8,1.6,15.6,3.3,23.3c3.5,15.3,9.4,30.2,18.2,43.5c8.7,13.3,20.5,24.8,34.6,32.9
			c14.1,8.1,30.3,12.5,46.6,13c16.4,0.5,32.7-2.9,47.7-9c15.1-6.1,28.9-14.9,41.1-25.2c1.7-1.5,3.4-3,5.1-4.5l0,0c0,0,0.8-0.7,2.1-2
			c17-16.1,30.5-35.5,40.3-56.5c2.1-4.5,4.1-9.1,5.9-14c0.1-0.2,0.2-0.4,0.3-0.6l0,0c0.8-2.2,1.6-4.4,2.3-6.7c0-0.1,0.1-0.2,0.1-0.2
			c5.9-15.7,12.2-45.2,12.2-45.2C306.9,133.6,306.4,131.2,304.8,129.2z M261.9,175.2l9.4-34.1c0.1-0.5,0.5-0.8,1.1-0.8h15.9
			c0.6,0,0.8,0.3,0.7,0.8l-9.5,34.1c-0.2,0.6-0.5,0.8-1.1,0.8h-15.9C261.8,176.1,261.6,175.8,261.9,175.2z"/>
	</g>
</g>
</svg>
