<?xml version="1.0" encoding="utf-8"?>
<!-- Generator: Adobe Illustrator 24.0.2, SVG Export Plug-In . SVG Version: 6.00 Build 0)  -->
<svg version="1.1" id="Layer_1" xmlns="http://www.w3.org/2000/svg" xmlns:xlink="http://www.w3.org/1999/xlink" x="0px" y="0px"
	 viewBox="0 0 29.24 29.11" style="enable-background:new 0 0 29.24 29.11;" xml:space="preserve">
<style type="text/css">
	.st0{fill:#2E007A;}
</style>
<title>facebook</title>
<path class="st0" d="M13.3,0.05c0.86-0.06,1.71-0.06,2.57,0c0.44,0,0.87,0.1,1.3,0.17C23.12,1.26,27.81,5.84,29,11.76
	c0.1,0.51,0.18,1,0.27,1.56v2.62c-0.12,0.41-0.21,0.83-0.27,1.26c-1.09,6.06-5.84,10.79-11.9,11.85c-0.21,0-0.23,0-0.22-0.21
	c0-3.24,0-6.49,0-9.73c0-0.21,0.06-0.25,0.26-0.25h2.91c0.19,0,0.26-0.05,0.29-0.25c0.18-1.24,0.37-2.48,0.58-3.72
	c0-0.23,0-0.28-0.25-0.28h-3.52c-0.14,0-0.25,0-0.25-0.2c0-0.9,0-1.81,0-2.71c-0.04-1.1,0.81-2.02,1.91-2.07
	c0.7-0.04,1.39-0.04,2.09,0c0.17,0,0.22,0,0.22-0.22c0-1.06,0-2.11,0-3.17c0-0.17-0.06-0.23-0.22-0.25
	c-1.35-0.25-2.72-0.31-4.09-0.19c-1.23,0.12-2.36,0.69-3.19,1.6c-0.87,1.04-1.34,2.36-1.31,3.72c0,1.09,0,2.19,0,3.28
	c0,0.2-0.05,0.25-0.25,0.25H8.88c-0.21,0-0.27,0.05-0.27,0.27c0,1.23,0,2.47,0,3.71c0,0.22,0.06,0.27,0.27,0.27H12
	c0.24,0,0.32,0,0.32,0.3c0,3.21,0,6.42,0,9.63v0.28h-0.11c-6.01-0.98-10.78-5.57-12-11.54C0.17,17,0.09,16.47,0,15.94v-2.62
	c0.13-0.47,0.14-1,0.23-1.42C1.45,5.48,6.79,0.64,13.3,0.05z"/>
</svg>
