<?xml version="1.0" encoding="utf-8"?>
<!-- Generator: Adobe Illustrator 24.0.2, SVG Export Plug-In . SVG Version: 6.00 Build 0)  -->
<svg version="1.1" id="Layer_1" xmlns="http://www.w3.org/2000/svg" xmlns:xlink="http://www.w3.org/1999/xlink" x="0px" y="0px"
	 viewBox="0 0 31.79 28.23" style="enable-background:new 0 0 31.79 28.23;" xml:space="preserve">
<style type="text/css">
	.st0{fill:#2E007A;}
</style>
<title>linkendin</title>
<path class="st0" d="M23.32,28.23h-5.16v-0.34c0-2.38,0-4.76,0-7.16c-0.01-0.56,0.05-1.12,0.2-1.66c0.14-0.79,0.69-1.45,1.44-1.72
	c0.65-0.21,1.34-0.23,2-0.05c0.55,0.15,1,0.55,1.2,1.09c0.23,0.54,0.34,1.13,0.32,1.72c0,2.61,0,5.22,0,7.83
	C23.31,28.04,23.31,28.13,23.32,28.23z"/>
<path class="st0" d="M26.22,0H5.57C2.49,0,0,2.49,0,5.57v17.09c0.01,3.07,2.5,5.56,5.57,5.57h0.64V13.9c0-0.34,0-0.34,0.34-0.34
	h3.89c0.23,0,0.3,0.07,0.3,0.29v14.08c-0.01,0.1-0.01,0.2,0,0.3h2.9v-0.42c0-4.65,0-9.28,0-13.92c0-0.25,0.06-0.34,0.33-0.33h3.72
	c0.26,0,0.32,0.08,0.31,0.33c0,0.56,0,1.11,0,1.74c0.19-0.19,0.35-0.4,0.48-0.63c0.66-0.83,1.59-1.4,2.62-1.62
	c1.62-0.42,3.34-0.13,4.74,0.79c0.69,0.5,1.2,1.2,1.46,2c0.26,0.73,0.41,1.49,0.46,2.26c0.17,2,0.09,4.09,0.11,6.14
	c0,1.13,0,2.25,0,3.38l0,0c2.33-0.72,3.92-2.88,3.92-5.32V5.57C31.79,2.49,29.3,0,26.22,0z M8.47,11.53c-1.45,0-2.62-1.17-2.62-2.62
	c0-1.45,1.17-2.62,2.62-2.62c1.45,0,2.62,1.17,2.62,2.62S9.92,11.53,8.47,11.53C8.47,11.53,8.47,11.53,8.47,11.53z"/>
</svg>
