<svg id="Layer_1" data-name="Layer 1" xmlns="http://www.w3.org/2000/svg" viewBox="0 0 33.03 26.93"><defs><style>.cls-1{fill:#2e007a;}</style></defs><title>twitter</title><path class="cls-1" d="M0,23.87a13.6,13.6,0,0,0,9.86-2.76,8.5,8.5,0,0,1-2.45-.63A6.86,6.86,0,0,1,3.8,16.72c-.15-.36,0-.4.29-.35a6.3,6.3,0,0,0,2.57-.15,6.89,6.89,0,0,1-4.48-3.3,6.77,6.77,0,0,1-.89-3.45,7,7,0,0,0,2.9.81C1.24,7.74.6,4.76,2.23,1.19a22.12,22.12,0,0,0,1.86,2A19,19,0,0,0,15.33,8.25c.29,0,.67.2.84,0s0-.55-.05-.83A6.81,6.81,0,0,1,27.68,2a.46.46,0,0,0,.48.12A13.5,13.5,0,0,0,31.64.78l.54-.29a7.09,7.09,0,0,1-2.91,3.75,19.53,19.53,0,0,0,3.76-1c-.2.26-.39.54-.6.8s-.44.54-.67.8A13.1,13.1,0,0,1,30,6.51a.54.54,0,0,0-.26.51,19.66,19.66,0,0,1-5.66,14.34,17.64,17.64,0,0,1-10,5.25A19.44,19.44,0,0,1,2.27,25.13,14.84,14.84,0,0,1,0,23.87Z" transform="translate(0 0)"/></svg>